<svg id="visual" viewBox="0 0 1200 540" width="1200" height="540" xmlns="http://www.w3.org/2000/svg" xmlns:xlink="http://www.w3.org/1999/xlink" version="1.1"><rect x="0" y="0" width="1200" height="540" fill="#ff9801"></rect><path d="M1140 540L1142.8 530C1145.7 520 1151.3 500 1150 480C1148.7 460 1140.3 440 1138.8 420C1137.3 400 1142.7 380 1144.7 360C1146.7 340 1145.3 320 1141.8 300C1138.3 280 1132.7 260 1133.5 240C1134.3 220 1141.7 200 1144.5 180C1147.3 160 1145.7 140 1142.8 120C1140 100 1136 80 1135 60C1134 40 1136 20 1137 10L1138 0L1200 0L1200 10C1200 20 1200 40 1200 60C1200 80 1200 100 1200 120C1200 140 1200 160 1200 180C1200 200 1200 220 1200 240C1200 260 1200 280 1200 300C1200 320 1200 340 1200 360C1200 380 1200 400 1200 420C1200 440 1200 460 1200 480C1200 500 1200 520 1200 530L1200 540Z" fill="#246EB9" stroke-linecap="round" stroke-linejoin="miter"></path></svg>