<svg id="visual" viewBox="0 0 941 86" width="941" height="86" xmlns="http://www.w3.org/2000/svg" xmlns:xlink="http://www.w3.org/1999/xlink" version="1.1"><g fill="#ff9801"><circle r="6" cx="427" cy="79"></circle><circle r="1" cx="137" cy="8"></circle><circle r="3" cx="81" cy="77"></circle><circle r="1" cx="651" cy="68"></circle><circle r="4" cx="426" cy="37"></circle><circle r="3" cx="245" cy="48"></circle><circle r="4" cx="484" cy="45"></circle><circle r="0" cx="274" cy="43"></circle><circle r="1" cx="704" cy="3"></circle><circle r="3" cx="78" cy="45"></circle><circle r="1" cx="550" cy="81"></circle><circle r="3" cx="536" cy="11"></circle><circle r="1" cx="726" cy="38"></circle><circle r="1" cx="2" cy="21"></circle><circle r="0" cx="233" cy="2"></circle><circle r="4" cx="400" cy="41"></circle><circle r="1" cx="770" cy="20"></circle><circle r="1" cx="922" cy="31"></circle><circle r="1" cx="297" cy="72"></circle><circle r="2" cx="672" cy="64"></circle><circle r="1" cx="703" cy="78"></circle><circle r="2" cx="233" cy="79"></circle><circle r="2" cx="454" cy="70"></circle><circle r="3" cx="474" cy="49"></circle><circle r="3" cx="383" cy="42"></circle><circle r="0" cx="158" cy="27"></circle><circle r="3" cx="541" cy="43"></circle></g></svg>